<svg xmlns="http://www.w3.org/2000/svg" width="512" height="512" fill="none"><path fill="#DBC900" d="M0 256a256 256 0 1 1 512.001 0A256 256 0 0 1 0 256Zm161.5-86.1c-12.2-5.2-26.3.4-31.5 12.6-5.2 12.2.4 26.3 12.6 31.5l11.9 5.1c17.3 7.4 35.2 12.9 53.6 16.3v50.1c0 4.3-.7 8.6-2.1 12.6l-28.7 86.1c-4.2 12.6 2.6 26.2 15.2 30.4 12.6 4.2 26.2-2.6 30.4-15.2l24.4-73.2c1.3-3.8 4.8-6.4 8.8-6.4 4 0 7.6 2.6 8.8 6.4l24.4 73.2c4.2 12.6 17.8 19.4 30.4 15.2 12.6-4.2 19.4-17.8 15.2-30.4l-28.7-86.1c-1.4-4.1-2.1-8.3-2.1-12.6v-50.1c18.4-3.5 36.3-8.9 53.6-16.3l11.9-5.1c12.2-5.2 17.8-19.3 12.6-31.5-5.2-12.2-19.3-17.8-31.5-12.6l-12 5.1c-26.1 11.2-54.2 17-82.7 17s-56.5-5.8-82.7-17l-11.9-5.1h.1ZM256 160a39.996 39.996 0 0 0 28.284-11.716 39.996 39.996 0 0 0 0-56.568A39.998 39.998 0 0 0 216 120a39.996 39.996 0 0 0 11.716 28.284A39.996 39.996 0 0 0 256 160Z"/></svg>